<?xml version="1.0" encoding="UTF-8"?>
<svg id="Layer_1" xmlns="http://www.w3.org/2000/svg" version="1.1" viewBox="0 0 959.5 540">
  <!-- Generator: Adobe Illustrator 29.1.0, SVG Export Plug-In . SVG Version: 2.1.0 Build 142)  -->
  <defs>
    <style>
      .st0 {
        fill: #726658;
      }

      .st1 {
        fill: #00253f;
      }

      .st2 {
        fill: #594a42;
      }

      .st3 {
        fill: #003d5f;
      }

      .st4 {
        fill: #003748;
      }

      .st5 {
        fill: #3982b8;
      }
    </style>
  </defs>
  <path class="st0" d="M0,434.3h959.5v77.3s-103.5,17.1-185.8,17.1c-131.1,0-307-18.2-505.9-17.9C104,510.9,0,524.9,0,524.9v-90.6Z"/>
  <path class="st2" d="M959.5,469.9s-142.6,16.6-190.5,17.2c-117.4,1.5-351-28.6-468.4-29.9C225.4,456.4,0,469.9,0,469.9v-97.4h959.5v97.4h0Z"/>
  <path class="st4" d="M959.5,411.7s-178.9,19.2-238.8,18.3c-114.7-1.8-341.6-50.3-456.3-49.7C197.9,380.6,0,411.7,0,411.7v-185.8h959.5v185.8Z"/>
  <path class="st1" d="M959.5,270.5s-144.1,14.8-192.1,18.8c-65.2,5.4-195.8,20.1-261.1,17.6-93.7-3.6-279-53.2-372.8-53.8C100,252.9,0,270.5,0,270.5V115.6h959.5v154.9h0Z"/>
  <path class="st3" d="M959.5,131s-150.9,15.4-201.3,19.5c-141.7,11.4-441.5,31.8-582.9,15.9C126.3,160.9,0,131,0,131V0h959.5v131Z"/>
  <path class="st5" d="M662,77c99.7-9.2,297.5-21,297.5-21V0C959.5,0,0,0,0,0v51.5s370.9,52.5,661.9,25.5Z"/>
</svg>