<?xml version="1.0" encoding="UTF-8"?>
<svg id="Layer_1" xmlns="http://www.w3.org/2000/svg" version="1.1" viewBox="0 0 959.5 540">
  <!-- Generator: Adobe Illustrator 29.1.0, SVG Export Plug-In . SVG Version: 2.1.0 Build 142)  -->
  <defs>
    <style>
      .st0 {
        fill: #726658;
      }

      .st1 {
        fill: #00253f;
      }

      .st2 {
        fill: #594a42;
      }

      .st3 {
        fill: #dabc94;
      }

      .st4 {
        fill: #003d5f;
      }

      .st5 {
        fill: #003748;
      }

      .st6 {
        fill: #3982b8;
      }
    </style>
  </defs>
  <rect class="st0" x="0" y="471.1" width="959.5" height="68.9"/>
  <path class="st2" d="M959.5,487.7s-142.6,19.6-190.5,20.4c-117.4,1.8-351-33.9-468.4-35.4C225.4,471.7,0,487.7,0,487.7v-115.2h959.5v115.2h0Z"/>
  <path class="st5" d="M959.5,411.7s-178.9,19.2-238.8,18.3c-114.7-1.8-341.6-50.3-456.3-49.7C197.9,380.6,0,411.7,0,411.7v-185.8h959.5v185.8Z"/>
  <path class="st1" d="M959.5,270.5s-144.1,14.8-192.1,18.8c-65.2,5.4-195.8,20.1-261.1,17.6-93.7-3.6-279-53.2-372.8-53.8C100,252.9,0,270.5,0,270.5V115.6h959.5v154.9h0Z"/>
  <path class="st4" d="M959.5,131s-150.9,15.4-201.3,19.5c-141.7,11.4-441.5,31.8-582.9,15.9C126.3,160.9,0,131,0,131V0h959.5v131Z"/>
  <path class="st6" d="M629.2,35.3C857.2,30.5,959.5,0,959.5,0H0s361.9,41,629.2,35.3Z"/>
  <path class="st3" d="M0,540h959.5v-25.9s-104.5,18.1-192.5,17.9-544.4-16.5-640.1-12.6C65.2,522,0,540,0,540Z"/>
</svg>