<svg id="visual" viewBox="0 0 960 540" width="960" height="540" xmlns="http://www.w3.org/2000/svg" xmlns:xlink="http://www.w3.org/1999/xlink" version="1.1">
  <!-- Smooth transition from Sand Brown to Driftwood Brown -->
  <path d="M0,0 C240,100 240,100 480,80 C720,60 720,100 960,0 L960,540 L0,540 Z" fill="#D0B99E"></path>

  <!-- Smooth transition from Driftwood Brown to Ocean Blue -->
  <path d="M0,100 C240,200 240,200 480,200 C720,200 720,230 960,200 L960,540 L0,540 Z" fill="#8F7A5D"></path>

  <!-- Smooth transition from Ocean Blue to Seafoam Blue -->
  <path d="M0,180 C240,270 240,270 480,270 C720,270 720,300 960,270 L960,540 L0,540 Z" fill="#7C9EB2"></path>
  
  <!-- Smooth transition from Seafoam Blue to Navy -->
  <path d="M0,250 C240,330 240,330 480,340 C720,350 720,370 960,340 L960,540 L0,540 Z" fill="#7B9E99"></path>

  <!-- Navy base layer to ensure a darker footer effect -->
  <path d="M0,380 C240,460 240,460 480,470 C720,480 720,490 960,470 L960,540 L0,540 Z" fill="#3B4A61"></path>
</svg>